<svg width="15" height="15" viewBox="0 0 15 15" fill="none" xmlns="http://www.w3.org/2000/svg">
<path d="M10.0706 11.4968C8.86496 12.4326 7.34802 12.8738 5.82855 12.7306C4.30908 12.5874 2.90129 11.8705 1.89176 10.7259C0.882224 9.58126 0.346823 8.09495 0.394537 6.56949C0.442252 5.04403 1.0695 3.59409 2.14859 2.5148C3.22788 1.43571 4.67782 0.808463 6.20328 0.760748C7.72874 0.713034 9.21505 1.24844 10.3597 2.25797C11.5043 3.2675 12.2212 4.67529 12.3644 6.19476C12.5076 7.71423 12.0664 9.23117 11.1306 10.4368L14.1706 13.4768C14.2693 13.5685 14.3415 13.6851 14.3795 13.8143C14.4175 13.9436 14.42 14.0807 14.3866 14.2112C14.3532 14.3417 14.2853 14.4608 14.1899 14.556C14.0945 14.6511 13.9752 14.7188 13.8446 14.7518C13.7142 14.7852 13.5772 14.7829 13.4481 14.7451C13.3189 14.7072 13.2023 14.6353 13.1106 14.5368L10.0706 11.4968ZM10.8906 6.7568C10.8995 6.16041 10.7897 5.5682 10.5676 5.01462C10.3455 4.46104 10.0156 3.95715 9.59699 3.53226C9.17839 3.10737 8.67947 2.76995 8.12927 2.53964C7.57906 2.30933 6.98855 2.19073 6.39209 2.19073C5.79563 2.19073 5.20512 2.30933 4.65492 2.53964C4.10472 2.76995 3.6058 3.10737 3.18719 3.53226C2.76859 3.95715 2.43865 4.46104 2.21657 5.01462C1.99449 5.5682 1.8847 6.16041 1.89359 6.7568C1.91121 7.93826 2.3929 9.06537 3.23462 9.89463C4.07634 10.7239 5.2105 11.1887 6.39209 11.1887C7.57368 11.1887 8.70785 10.7239 9.54956 9.89463C10.3913 9.06537 10.873 7.93826 10.8906 6.7568Z" fill="#525252"/>
</svg>
